<?xml version="1.0" encoding="UTF-8" standalone="no"?>
<!-- Created with Inkscape (http://www.inkscape.org/) -->
<svg
   xmlns:dc="http://purl.org/dc/elements/1.1/"
   xmlns:cc="http://web.resource.org/cc/"
   xmlns:rdf="http://www.w3.org/1999/02/22-rdf-syntax-ns#"
   xmlns:svg="http://www.w3.org/2000/svg"
   xmlns="http://www.w3.org/2000/svg"
   xmlns:xlink="http://www.w3.org/1999/xlink"
   xmlns:sodipodi="http://sodipodi.sourceforge.net/DTD/sodipodi-0.dtd"
   xmlns:inkscape="http://www.inkscape.org/namespaces/inkscape"
   width="744.09448819"
   height="1052.3622047"
   id="svg2"
   sodipodi:version="0.32"
   inkscape:version="0.45.1"
   sodipodi:docbase="/home/rjones/Desktop"
   sodipodi:docname="pyweek-logo.svg"
   inkscape:output_extension="org.inkscape.output.svg.inkscape">
  <defs
     id="defs4">
    <linearGradient
       id="linearGradient5890">
      <stop
         style="stop-color:#519abb;stop-opacity:1;"
         offset="0"
         id="stop5892" />
      <stop
         style="stop-color:#356d87;stop-opacity:1;"
         offset="1"
         id="stop5894" />
    </linearGradient>
    <linearGradient
       id="linearGradient5870">
      <stop
         style="stop-color:#ffffff;stop-opacity:1;"
         offset="0"
         id="stop5872" />
      <stop
         id="stop5888"
         offset="0.5"
         style="stop-color:#ffffff;stop-opacity:0.25490198;" />
      <stop
         style="stop-color:#ffffff;stop-opacity:0;"
         offset="1"
         id="stop5874" />
    </linearGradient>
    <linearGradient
       id="linearGradient3176">
      <stop
         style="stop-color:#ffffff;stop-opacity:1;"
         offset="0"
         id="stop3178" />
      <stop
         style="stop-color:#000000;stop-opacity:0;"
         offset="1"
         id="stop3180" />
    </linearGradient>
    <linearGradient
       id="linearGradient3168">
      <stop
         style="stop-color:#ffffff;stop-opacity:1;"
         offset="0"
         id="stop3170" />
      <stop
         style="stop-color:#ffffff;stop-opacity:0"
         offset="1"
         id="stop3172" />
    </linearGradient>
    <linearGradient
       inkscape:collect="always"
       xlink:href="#linearGradient5870"
       id="linearGradient5876"
       x1="273.45087"
       y1="515.84375"
       x2="276.40027"
       y2="483.57227"
       gradientUnits="userSpaceOnUse" />
    <linearGradient
       inkscape:collect="always"
       xlink:href="#linearGradient5870"
       id="linearGradient5878"
       x1="273.45087"
       y1="515.84375"
       x2="276.40027"
       y2="483.57227"
       gradientUnits="userSpaceOnUse" />
    <linearGradient
       inkscape:collect="always"
       xlink:href="#linearGradient5870"
       id="linearGradient5880"
       x1="273.45087"
       y1="515.84375"
       x2="276.40027"
       y2="483.57227"
       gradientUnits="userSpaceOnUse" />
    <linearGradient
       inkscape:collect="always"
       xlink:href="#linearGradient5870"
       id="linearGradient5882"
       x1="273.45087"
       y1="515.84375"
       x2="276.40027"
       y2="483.57227"
       gradientUnits="userSpaceOnUse" />
    <linearGradient
       inkscape:collect="always"
       xlink:href="#linearGradient5870"
       id="linearGradient5884"
       x1="273.45087"
       y1="515.84375"
       x2="276.40027"
       y2="483.57227"
       gradientUnits="userSpaceOnUse" />
    <linearGradient
       inkscape:collect="always"
       xlink:href="#linearGradient5870"
       id="linearGradient5886"
       x1="273.45087"
       y1="515.84375"
       x2="276.40027"
       y2="483.57227"
       gradientUnits="userSpaceOnUse" />
    <linearGradient
       inkscape:collect="always"
       xlink:href="#linearGradient5890"
       id="linearGradient5896"
       x1="254.06915"
       y1="506.76678"
       x2="253.64781"
       y2="516.41534"
       gradientUnits="userSpaceOnUse" />
    <linearGradient
       inkscape:collect="always"
       xlink:href="#linearGradient5890"
       id="linearGradient5898"
       x1="254.06915"
       y1="506.76678"
       x2="253.64781"
       y2="516.41534"
       gradientUnits="userSpaceOnUse" />
    <linearGradient
       inkscape:collect="always"
       xlink:href="#linearGradient5890"
       id="linearGradient5900"
       x1="254.06915"
       y1="506.76678"
       x2="253.64781"
       y2="516.41534"
       gradientUnits="userSpaceOnUse" />
    <linearGradient
       inkscape:collect="always"
       xlink:href="#linearGradient5890"
       id="linearGradient5902"
       x1="254.06915"
       y1="506.76678"
       x2="253.64781"
       y2="516.41534"
       gradientUnits="userSpaceOnUse" />
    <linearGradient
       inkscape:collect="always"
       xlink:href="#linearGradient5890"
       id="linearGradient5904"
       x1="254.06915"
       y1="506.76678"
       x2="253.64781"
       y2="516.41534"
       gradientUnits="userSpaceOnUse" />
    <linearGradient
       inkscape:collect="always"
       xlink:href="#linearGradient5890"
       id="linearGradient5906"
       x1="254.06915"
       y1="506.76678"
       x2="253.64781"
       y2="516.41534"
       gradientUnits="userSpaceOnUse" />
  </defs>
  <sodipodi:namedview
     id="base"
     pagecolor="#ffffff"
     bordercolor="#666666"
     borderopacity="1.0"
     gridtolerance="10000"
     guidetolerance="10"
     objecttolerance="10"
     inkscape:pageopacity="0.0"
     inkscape:pageshadow="2"
     inkscape:zoom="2.3733696"
     inkscape:cx="247.86156"
     inkscape:cy="526.18109"
     inkscape:document-units="px"
     inkscape:current-layer="layer3"
     inkscape:window-width="825"
     inkscape:window-height="591"
     inkscape:window-x="1440"
     inkscape:window-y="429" />
  <metadata
     id="metadata7">
    <rdf:RDF>
      <cc:Work
         rdf:about="">
        <dc:format>image/svg+xml</dc:format>
        <dc:type
           rdf:resource="http://purl.org/dc/dcmitype/StillImage" />
      </cc:Work>
    </rdf:RDF>
  </metadata>
  <g
     inkscape:label="Layer 1"
     inkscape:groupmode="layer"
     id="layer1"
     style="display:inline">
    <path
       style="font-size:64px;font-style:normal;font-weight:normal;fill:url(#linearGradient5906);fill-opacity:1.0;stroke:none;stroke-width:1px;stroke-linecap:butt;stroke-linejoin:miter;stroke-opacity:1;font-family:Transuranium"
       d="M 147.6875,478.9375 L 147.6875,521.8125 L 161.53125,521.8125 L 161.59375,506.6875 L 190.59375,506.6875 L 190.59375,478.9375 L 147.6875,478.9375 z M 161.90625,491.90625 L 178.6875,491.90625 L 178.6875,493.96875 L 161.90625,493.96875 L 161.90625,491.90625 z "
       id="path3162"
       inkscape:export-filename="/home/rjones/Desktop/path3206.png"
       inkscape:export-xdpi="119.68779"
       inkscape:export-ydpi="119.68779" />
    <path
       style="font-size:64px;font-style:normal;font-weight:normal;fill:url(#linearGradient5904);fill-opacity:1.0;stroke:none;stroke-width:1px;stroke-linecap:butt;stroke-linejoin:miter;stroke-opacity:1;font-family:Transuranium"
       d="M 222.65329,521.80677 L 222.65329,491.72677 L 208.89329,491.72677 L 208.89329,501.58277 L 206.84529,501.58277 L 206.84529,491.72677 L 192.57329,491.72677 L 192.57329,513.87077 L 208.63729,513.87077 L 208.63729,515.91877 L 192.57329,515.91877 L 192.57329,521.80677 L 222.65329,521.80677"
       id="path3156"
       inkscape:export-filename="/home/rjones/Desktop/path3206.png"
       inkscape:export-xdpi="119.68779"
       inkscape:export-ydpi="119.68779" />
    <path
       style="font-size:64px;font-style:normal;font-weight:normal;fill:url(#linearGradient5902);fill-opacity:1.0;stroke:none;stroke-width:1px;stroke-linecap:butt;stroke-linejoin:miter;stroke-opacity:1;font-family:Transuranium"
       d="M 267.57829,521.80677 L 267.57829,478.92677 L 254.33029,478.92677 L 254.33029,496.27077 L 252.28229,496.27077 L 252.28229,478.92677 L 240.25029,478.92677 L 240.25029,496.27077 L 238.20229,496.27077 L 238.20229,478.92677 L 224.69829,478.92677 L 224.69829,521.80677 L 245.05029,521.80677 L 245.05029,507.08677 L 247.09829,507.08677 L 247.09829,521.80677 L 267.57829,521.80677"
       id="path3152"
       inkscape:export-filename="/home/rjones/Desktop/path3206.png"
       inkscape:export-xdpi="119.68779"
       inkscape:export-ydpi="119.68779" />
    <path
       style="font-size:64px;font-style:normal;font-weight:normal;fill:url(#linearGradient5900);fill-opacity:1.0;stroke:none;stroke-width:1px;stroke-linecap:butt;stroke-linejoin:miter;stroke-opacity:1;font-family:Transuranium"
       d="M 299.65329,521.80677 L 299.65329,513.23077 L 277.06129,513.23077 L 277.06129,511.18277 L 299.65329,511.18277 L 299.65329,501.71077 L 277.06129,501.71077 L 277.06129,499.66277 L 299.65329,499.66277 L 299.65329,491.72677 L 269.57329,491.72677 L 269.57329,521.80677 L 299.65329,521.80677"
       id="path3148"
       inkscape:export-filename="/home/rjones/Desktop/path3206.png"
       inkscape:export-xdpi="119.68779"
       inkscape:export-ydpi="119.68779" />
    <path
       style="font-size:64px;font-style:normal;font-weight:normal;fill:url(#linearGradient5898);fill-opacity:1.0;stroke:none;stroke-width:1px;stroke-linecap:butt;stroke-linejoin:miter;stroke-opacity:1;font-family:Transuranium"
       d="M 331.77829,521.80677 L 331.77829,513.23077 L 309.18629,513.23077 L 309.18629,511.18277 L 331.77829,511.18277 L 331.77829,501.71077 L 309.18629,501.71077 L 309.18629,499.66277 L 331.77829,499.66277 L 331.77829,491.72677 L 301.69829,491.72677 L 301.69829,521.80677 L 331.77829,521.80677"
       id="path3144"
       inkscape:export-filename="/home/rjones/Desktop/path3206.png"
       inkscape:export-xdpi="119.68779"
       inkscape:export-ydpi="119.68779" />
    <path
       style="font-size:64px;font-style:normal;font-weight:normal;fill:url(#linearGradient5896);fill-opacity:1.0;stroke:none;stroke-width:1px;stroke-linecap:butt;stroke-linejoin:miter;stroke-opacity:1;font-family:Transuranium"
       d="M 363.90329,521.80677 L 363.90329,508.23877 L 356.67129,508.23877 L 356.67129,506.19077 L 363.90329,506.19077 L 363.90329,491.72677 L 349.95129,491.72677 L 349.95129,499.79077 L 347.90329,499.79077 L 347.90329,491.72677 L 333.82329,491.72677 L 333.82329,521.80677 L 347.90329,521.80677 L 347.90329,514.38277 L 349.95129,514.38277 L 349.95129,521.80677 L 363.90329,521.80677"
       id="text2160"
       inkscape:export-filename="/home/rjones/Desktop/path3206.png"
       inkscape:export-xdpi="119.68779"
       inkscape:export-ydpi="119.68779" />
    <path
       style="font-size:16.55539894px;font-style:normal;font-weight:normal;fill:#000000;fill-opacity:1;stroke:none;stroke-width:0.2;stroke-linecap:butt;stroke-linejoin:miter;stroke-miterlimit:4;stroke-dasharray:none;stroke-opacity:1;font-family:ModeNine"
       d="M 148.088,528.45308 L 148.088,531.76416 L 146.98431,531.76416 L 146.98431,524.03831 L 150.29539,524.03831 C 150.84723,524.03831 151.35125,524.27009 151.80745,524.73363 C 152.27099,525.18983 152.50277,525.69385 152.50278,526.24569 C 152.50277,526.97414 152.27467,527.53702 151.81849,527.93434 C 151.41379,528.28017 150.90609,528.45308 150.29539,528.45308 C 150.29538,528.45308 149.55959,528.45308 148.088,528.45308 M 151.39908,526.24569 C 151.39908,525.9661 151.28503,525.71225 151.05694,525.48415 C 150.82884,525.25606 150.57499,525.14201 150.29539,525.142 L 148.088,525.142 L 148.088,527.34939 L 150.29539,527.34939 C 150.57499,527.34939 150.82884,527.23534 151.05694,527.00724 C 151.28503,526.77915 151.39908,526.5253 151.39908,526.24569 M 159.12062,531.76416 C 159.12062,532.31601 158.88884,532.82003 158.4253,533.27622 C 157.9691,533.73977 157.46508,533.97154 156.91324,533.97155 L 154.70585,533.97155 L 154.70585,532.86785 L 156.91324,532.86785 C 157.19283,532.86785 157.443,532.7538 157.66375,532.52571 C 157.89184,532.29761 158.00957,532.04376 158.01693,531.76416 L 155.80954,531.76416 C 155.25769,531.76416 154.75,531.53606 154.28645,531.07987 C 153.83025,530.61632 153.60216,530.10862 153.60216,529.55677 L 153.60216,526.24569 L 154.70585,526.24569 L 154.70585,529.55677 C 154.70585,529.83638 154.8199,530.09023 155.048,530.31832 C 155.27609,530.54642 155.52994,530.66047 155.80954,530.66047 L 158.01693,530.66047 L 158.01693,526.24569 L 159.12062,526.24569 L 159.12062,531.76416 M 164.63478,531.76416 C 164.08293,531.76416 163.57523,531.53606 163.11168,531.07987 C 162.65548,530.61632 162.42739,530.10862 162.42739,529.55677 L 162.42739,527.34939 L 161.3237,527.34939 L 161.3237,526.24569 L 162.42739,526.24569 L 162.42739,524.03831 L 163.53109,524.03831 L 163.53109,526.24569 L 164.63478,526.24569 L 164.63478,527.34939 L 163.53109,527.34939 L 163.53109,529.55677 C 163.53108,529.82902 163.64513,530.08287 163.87323,530.31832 C 164.10868,530.54642 164.36253,530.66047 164.63478,530.66047 L 164.63478,531.76416 M 172.35632,531.76416 L 171.25263,531.76416 L 171.25263,528.45308 C 171.25262,528.17348 171.13857,527.91963 170.91048,527.69153 C 170.68238,527.46344 170.42853,527.34939 170.14893,527.34939 L 167.94155,527.34939 L 167.94155,531.76416 L 166.83785,531.76416 L 166.83785,524.03831 L 167.94155,524.03831 L 167.94155,526.24569 L 170.14893,526.24569 C 170.70078,526.2457 171.2048,526.47747 171.66099,526.94102 C 172.12454,527.39722 172.35631,527.90124 172.35632,528.45308 L 172.35632,531.76416 M 178.97417,529.55677 C 178.97416,530.10862 178.74239,530.61632 178.27884,531.07987 C 177.82264,531.53606 177.31862,531.76416 176.76678,531.76416 L 175.66309,531.76416 C 175.11124,531.76416 174.60354,531.53606 174.13999,531.07987 C 173.6838,530.61632 173.4557,530.10862 173.4557,529.55677 L 173.4557,528.45308 C 173.4557,527.90124 173.6838,527.39722 174.13999,526.94102 C 174.60354,526.47747 175.11124,526.2457 175.66309,526.24569 L 176.76678,526.24569 C 177.31862,526.2457 177.82264,526.47747 178.27884,526.94102 C 178.74239,527.39722 178.97416,527.90124 178.97417,528.45308 L 178.97417,529.55677 M 177.87048,529.55677 L 177.87048,528.45308 C 177.87047,528.17348 177.75642,527.91963 177.52833,527.69153 C 177.30023,527.46344 177.04638,527.34939 176.76678,527.34939 L 175.66309,527.34939 C 175.39084,527.34939 175.13699,527.46344 174.90154,527.69153 C 174.67344,527.91963 174.55939,528.17348 174.5594,528.45308 L 174.5594,529.55677 C 174.55939,529.82902 174.67344,530.08287 174.90154,530.31832 C 175.13699,530.54642 175.39084,530.66047 175.66309,530.66047 L 176.76678,530.66047 C 177.04638,530.66047 177.30023,530.54642 177.52833,530.31832 C 177.75642,530.08287 177.87047,529.82902 177.87048,529.55677 M 185.59202,531.76416 L 184.48832,531.76416 L 184.48832,528.45308 C 184.48832,528.17348 184.37427,527.91963 184.14618,527.69153 C 183.91808,527.46344 183.66423,527.34939 183.38463,527.34939 L 181.17724,527.34939 L 181.17724,531.76416 L 180.07355,531.76416 L 180.07355,526.24569 L 183.38463,526.24569 C 183.93647,526.2457 184.44049,526.47747 184.89669,526.94102 C 185.36023,527.39722 185.59201,527.90124 185.59202,528.45308 L 185.59202,531.76416 M 198.82771,531.76416 L 195.51663,531.76416 C 194.96479,531.76416 194.45709,531.53606 193.99354,531.07987 C 193.53734,530.61632 193.30925,530.10862 193.30925,529.55677 L 193.30925,526.24569 C 193.30925,525.69385 193.53734,525.18983 193.99354,524.73363 C 194.45709,524.27009 194.96479,524.03831 195.51663,524.03831 L 196.62033,524.03831 C 197.17217,524.03831 197.67619,524.27009 198.13239,524.73363 C 198.59593,525.18983 198.82771,525.69385 198.82771,526.24569 L 197.72402,526.24569 C 197.72402,525.9661 197.60997,525.71225 197.38188,525.48415 C 197.15377,525.25606 196.89993,525.14201 196.62033,525.142 L 195.51663,525.142 C 195.24439,525.14201 194.99054,525.25606 194.75509,525.48415 C 194.52699,525.71225 194.41294,525.9661 194.41294,526.24569 L 194.41294,529.55677 C 194.41294,529.82902 194.52699,530.08287 194.75509,530.31832 C 194.99054,530.54642 195.24439,530.66047 195.51663,530.66047 L 197.72402,530.66047 L 197.72402,529.55677 L 196.62033,529.55677 L 196.62033,528.45308 L 198.82771,528.45308 L 198.82771,531.76416 M 205.44556,531.76416 L 201.58264,531.76416 C 201.17059,531.76416 200.79165,531.59125 200.44583,531.24542 C 200.10001,530.8996 199.92709,530.52067 199.9271,530.10862 C 199.92709,529.69658 200.10001,529.31764 200.44583,528.97182 C 200.79165,528.626 201.17059,528.45308 201.58264,528.45308 L 204.34187,528.45308 C 204.34186,528.18084 204.22782,527.93435 203.99972,527.71361 C 203.77162,527.48551 203.51777,527.36411 203.23818,527.34939 C 203.23817,527.36411 202.50238,527.36411 201.03079,527.34939 L 201.03079,526.24569 L 203.23818,526.24569 C 203.79002,526.2457 204.29404,526.47747 204.75024,526.94102 C 205.21378,527.39722 205.44556,527.90124 205.44556,528.45308 L 205.44556,531.76416 M 204.34187,530.66047 L 204.34187,529.55677 L 201.58264,529.55677 C 201.43547,529.55678 201.30671,529.61564 201.19634,529.73336 C 201.08597,529.84374 201.03079,529.96882 201.03079,530.10862 C 201.03079,530.24842 201.08597,530.37719 201.19634,530.49491 C 201.30671,530.60528 201.43547,530.66047 201.58264,530.66047 L 204.34187,530.66047 M 212.06341,531.76416 L 210.95972,531.76416 L 210.95972,527.90123 C 210.95971,527.76144 210.90085,527.63635 210.78313,527.52598 C 210.67275,527.40825 210.54767,527.34939 210.40787,527.34939 C 210.26806,527.34939 210.1393,527.40825 210.02158,527.52598 C 209.9112,527.63635 209.85602,527.76144 209.85602,527.90123 L 209.85602,531.76416 L 208.75233,531.76416 L 208.75233,527.90123 C 208.75233,527.76144 208.69346,527.63635 208.57574,527.52598 C 208.46537,527.40825 208.34028,527.34939 208.20048,527.34939 C 208.06068,527.34939 207.93192,527.40825 207.81419,527.52598 C 207.70382,527.63635 207.64863,527.76144 207.64864,527.90123 L 207.64864,531.76416 L 206.54494,531.76416 L 206.54494,526.24569 L 207.64864,526.24569 L 207.64864,526.3671 C 207.83258,526.28617 208.01653,526.2457 208.20048,526.24569 C 208.59781,526.2457 208.96571,526.40757 209.30418,526.73132 C 209.64264,526.40757 210.01054,526.2457 210.40787,526.24569 C 210.81991,526.2457 211.19884,526.41861 211.54467,526.76443 C 211.89049,527.11026 212.0634,527.48919 212.06341,527.90123 L 212.06341,531.76416 M 218.68126,529.55677 L 214.26648,529.55677 C 214.26648,529.82166 214.38421,530.07183 214.61967,530.30729 C 214.85512,530.54274 215.10529,530.66047 215.37018,530.66047 L 217.57756,530.66047 L 217.57756,531.76416 L 215.37018,531.76416 C 214.81833,531.76416 214.31063,531.53606 213.84708,531.07987 C 213.39089,530.61632 213.16279,530.10862 213.16279,529.55677 L 213.16279,528.45308 C 213.16279,527.90124 213.39089,527.39722 213.84708,526.94102 C 214.31063,526.47747 214.81833,526.2457 215.37018,526.24569 L 216.47387,526.24569 C 217.10665,526.2457 217.64746,526.51059 218.0963,527.04035 C 218.48626,527.50391 218.68125,527.97482 218.68126,528.45308 L 218.68126,529.55677 M 217.57756,528.45308 C 217.57756,528.17348 217.46351,527.91963 217.23542,527.69153 C 217.00732,527.46344 216.75347,527.34939 216.47387,527.34939 L 215.37018,527.34939 C 215.09057,527.36411 214.83672,527.48551 214.60863,527.71361 C 214.38053,527.93435 214.26648,528.18084 214.26648,528.45308 L 217.57756,528.45308 M 227.50219,528.45308 L 227.50219,531.76416 L 226.39849,531.76416 L 226.39849,524.03831 L 229.70957,524.03831 C 230.26141,524.03831 230.76543,524.27009 231.22163,524.73363 C 231.68518,525.18983 231.91695,525.69385 231.91696,526.24569 C 231.91695,526.97414 231.68886,527.53702 231.23267,527.93434 C 230.82798,528.28017 230.32028,528.45308 229.70957,528.45308 C 229.70957,528.45308 228.97377,528.45308 227.50219,528.45308 M 230.81327,526.24569 C 230.81326,525.9661 230.69921,525.71225 230.47112,525.48415 C 230.24302,525.25606 229.98917,525.14201 229.70957,525.142 L 227.50219,525.142 L 227.50219,527.34939 L 229.70957,527.34939 C 229.98917,527.34939 230.24302,527.23534 230.47112,527.00724 C 230.69921,526.77915 230.81326,526.5253 230.81327,526.24569 M 238.5348,527.34939 L 237.43111,527.34939 C 236.87926,527.34939 236.37156,527.58117 235.90801,528.04471 C 235.45182,528.50091 235.22372,529.00493 235.22372,529.55677 L 235.22372,531.76416 L 234.12003,531.76416 L 234.12003,526.24569 L 235.22372,526.24569 L 235.22372,527.21694 C 235.90065,526.56945 236.63645,526.2457 237.43111,526.24569 L 238.5348,526.24569 L 238.5348,527.34939 M 245.15265,529.55677 C 245.15265,530.10862 244.92087,530.61632 244.45733,531.07987 C 244.00113,531.53606 243.49711,531.76416 242.94527,531.76416 L 241.84157,531.76416 C 241.28973,531.76416 240.78203,531.53606 240.31848,531.07987 C 239.86228,530.61632 239.63419,530.10862 239.63419,529.55677 L 239.63419,528.45308 C 239.63419,527.90124 239.86228,527.39722 240.31848,526.94102 C 240.78203,526.47747 241.28973,526.2457 241.84157,526.24569 L 242.94527,526.24569 C 243.49711,526.2457 244.00113,526.47747 244.45733,526.94102 C 244.92087,527.39722 245.15265,527.90124 245.15265,528.45308 L 245.15265,529.55677 M 244.04896,529.55677 L 244.04896,528.45308 C 244.04896,528.17348 243.93491,527.91963 243.70682,527.69153 C 243.47871,527.46344 243.22487,527.34939 242.94527,527.34939 L 241.84157,527.34939 C 241.56933,527.34939 241.31548,527.46344 241.08003,527.69153 C 240.85193,527.91963 240.73788,528.17348 240.73788,528.45308 L 240.73788,529.55677 C 240.73788,529.82902 240.85193,530.08287 241.08003,530.31832 C 241.31548,530.54642 241.56933,530.66047 241.84157,530.66047 L 242.94527,530.66047 C 243.22487,530.66047 243.47871,530.54642 243.70682,530.31832 C 243.93491,530.08287 244.04896,529.82902 244.04896,529.55677 M 251.7705,531.76416 C 251.77049,532.31601 251.53872,532.82003 251.07517,533.27622 C 250.61897,533.73977 250.11495,533.97154 249.56311,533.97155 L 247.35572,533.97155 L 247.35572,532.86785 L 249.56311,532.86785 C 249.84271,532.86785 250.09656,532.7538 250.32466,532.52571 C 250.55275,532.29761 250.6668,532.04376 250.6668,531.76416 L 248.45942,531.76416 C 247.90757,531.76416 247.39987,531.53606 246.93632,531.07987 C 246.48013,530.61632 246.25203,530.10862 246.25203,529.55677 L 246.25203,528.45308 C 246.25203,527.90124 246.48013,527.39722 246.93632,526.94102 C 247.39987,526.47747 247.90757,526.2457 248.45942,526.24569 L 251.7705,526.24569 L 251.7705,531.76416 M 250.6668,530.66047 L 250.6668,527.34939 L 248.45942,527.34939 C 248.19453,527.34939 247.94436,527.46712 247.70891,527.70257 C 247.47345,527.93803 247.35572,528.1882 247.35572,528.45308 L 247.35572,529.55677 C 247.35572,529.82902 247.46977,530.07919 247.69787,530.30729 C 247.92596,530.52802 248.17981,530.64575 248.45942,530.66047 L 250.6668,530.66047 M 258.38835,527.34939 L 257.28466,527.34939 C 256.7328,527.34939 256.22511,527.58117 255.76156,528.04471 C 255.30536,528.50091 255.07727,529.00493 255.07727,529.55677 L 255.07727,531.76416 L 253.97358,531.76416 L 253.97358,526.24569 L 255.07727,526.24569 L 255.07727,527.21694 C 255.7542,526.56945 256.48999,526.2457 257.28466,526.24569 L 258.38835,526.24569 L 258.38835,527.34939 M 265.0062,531.76416 L 261.14327,531.76416 C 260.73123,531.76416 260.35229,531.59125 260.00647,531.24542 C 259.66064,530.8996 259.48773,530.52067 259.48773,530.10862 C 259.48773,529.69658 259.66064,529.31764 260.00647,528.97182 C 260.35229,528.626 260.73123,528.45308 261.14327,528.45308 L 263.90251,528.45308 C 263.9025,528.18084 263.78845,527.93435 263.56036,527.71361 C 263.33226,527.48551 263.07841,527.36411 262.79881,527.34939 C 262.79881,527.36411 262.06301,527.36411 260.59143,527.34939 L 260.59143,526.24569 L 262.79881,526.24569 C 263.35066,526.2457 263.85468,526.47747 264.31087,526.94102 C 264.77442,527.39722 265.00619,527.90124 265.0062,528.45308 L 265.0062,531.76416 M 263.90251,530.66047 L 263.90251,529.55677 L 261.14327,529.55677 C 260.99611,529.55678 260.86735,529.61564 260.75698,529.73336 C 260.64661,529.84374 260.59143,529.96882 260.59143,530.10862 C 260.59143,530.24842 260.64661,530.37719 260.75698,530.49491 C 260.86735,530.60528 260.99611,530.66047 261.14327,530.66047 L 263.90251,530.66047 M 271.62404,531.76416 L 270.52035,531.76416 L 270.52035,527.90123 C 270.52035,527.76144 270.46148,527.63635 270.34376,527.52598 C 270.23339,527.40825 270.1083,527.34939 269.9685,527.34939 C 269.8287,527.34939 269.69993,527.40825 269.58221,527.52598 C 269.47184,527.63635 269.41665,527.76144 269.41666,527.90123 L 269.41666,531.76416 L 268.31296,531.76416 L 268.31296,527.90123 C 268.31296,527.76144 268.2541,527.63635 268.13637,527.52598 C 268.026,527.40825 267.90092,527.34939 267.76112,527.34939 C 267.62131,527.34939 267.49255,527.40825 267.37483,527.52598 C 267.26445,527.63635 267.20927,527.76144 267.20927,527.90123 L 267.20927,531.76416 L 266.10558,531.76416 L 266.10558,526.24569 L 267.20927,526.24569 L 267.20927,526.3671 C 267.39322,526.28617 267.57717,526.2457 267.76112,526.24569 C 268.15844,526.2457 268.52634,526.40757 268.86481,526.73132 C 269.20327,526.40757 269.57117,526.2457 269.9685,526.24569 C 270.38054,526.2457 270.75948,526.41861 271.10531,526.76443 C 271.45113,527.11026 271.62404,527.48919 271.62404,527.90123 L 271.62404,531.76416 M 278.2419,531.76416 L 277.1382,531.76416 L 277.1382,527.90123 C 277.1382,527.76144 277.07933,527.63635 276.96161,527.52598 C 276.85124,527.40825 276.72615,527.34939 276.58636,527.34939 C 276.44655,527.34939 276.31779,527.40825 276.20006,527.52598 C 276.08969,527.63635 276.0345,527.76144 276.03451,527.90123 L 276.03451,531.76416 L 274.93082,531.76416 L 274.93082,527.90123 C 274.93081,527.76144 274.87195,527.63635 274.75422,527.52598 C 274.64385,527.40825 274.51877,527.34939 274.37897,527.34939 C 274.23917,527.34939 274.1104,527.40825 273.99268,527.52598 C 273.8823,527.63635 273.82712,527.76144 273.82712,527.90123 L 273.82712,531.76416 L 272.72343,531.76416 L 272.72343,526.24569 L 273.82712,526.24569 L 273.82712,526.3671 C 274.01107,526.28617 274.19502,526.2457 274.37897,526.24569 C 274.7763,526.2457 275.14419,526.40757 275.48266,526.73132 C 275.82112,526.40757 276.18902,526.2457 276.58636,526.24569 C 276.9984,526.2457 277.37733,526.41861 277.72316,526.76443 C 278.06898,527.11026 278.24189,527.48919 278.2419,527.90123 L 278.2419,531.76416 M 282.65235,525.142 L 281.54866,525.142 L 281.54866,524.03831 L 282.65235,524.03831 L 282.65235,525.142 M 283.75605,531.76416 L 280.44497,531.76416 L 280.44497,530.66047 L 281.54866,530.66047 L 281.54866,527.34939 L 280.44497,527.34939 L 280.44497,526.24569 L 282.65235,526.24569 L 282.65235,530.66047 L 283.75605,530.66047 L 283.75605,531.76416 M 291.4776,531.76416 L 290.3739,531.76416 L 290.3739,528.45308 C 290.3739,528.17348 290.25985,527.91963 290.03176,527.69153 C 289.80366,527.46344 289.54981,527.34939 289.27021,527.34939 L 287.06282,527.34939 L 287.06282,531.76416 L 285.95913,531.76416 L 285.95913,526.24569 L 289.27021,526.24569 C 289.82205,526.2457 290.32607,526.47747 290.78227,526.94102 C 291.24582,527.39722 291.47759,527.90124 291.4776,528.45308 L 291.4776,531.76416 M 298.09544,531.76416 C 298.09544,532.31601 297.86366,532.82003 297.40011,533.27622 C 296.94392,533.73977 296.4399,533.97154 295.88806,533.97155 L 293.68067,533.97155 L 293.68067,532.86785 L 295.88806,532.86785 C 296.16765,532.86785 296.4215,532.7538 296.6496,532.52571 C 296.87769,532.29761 296.99174,532.04376 296.99175,531.76416 L 294.78436,531.76416 C 294.23251,531.76416 293.72481,531.53606 293.26126,531.07987 C 292.80507,530.61632 292.57697,530.10862 292.57698,529.55677 L 292.57698,528.45308 C 292.57697,527.90124 292.80507,527.39722 293.26126,526.94102 C 293.72481,526.47747 294.23251,526.2457 294.78436,526.24569 L 298.09544,526.24569 L 298.09544,531.76416 M 296.99175,530.66047 L 296.99175,527.34939 L 294.78436,527.34939 C 294.51947,527.34939 294.2693,527.46712 294.03385,527.70257 C 293.79839,527.93803 293.68067,528.1882 293.68067,528.45308 L 293.68067,529.55677 C 293.68067,529.82902 293.79471,530.07919 294.02281,530.30729 C 294.25091,530.52802 294.50476,530.64575 294.78436,530.66047 L 296.99175,530.66047 M 311.33114,529.55677 C 311.33114,530.10862 311.09936,530.61632 310.63582,531.07987 C 310.17962,531.53606 309.6756,531.76416 309.12376,531.76416 L 308.02006,531.76416 C 307.46821,531.76416 306.96052,531.53606 306.49697,531.07987 C 306.04077,530.61632 305.81268,530.10862 305.81268,529.55677 L 305.81268,526.24569 C 305.81268,525.69385 306.04077,525.18983 306.49697,524.73363 C 306.96052,524.27009 307.46821,524.03831 308.02006,524.03831 L 309.12376,524.03831 C 309.6756,524.03831 310.17962,524.27009 310.63582,524.73363 C 311.09936,525.18983 311.33114,525.69385 311.33114,526.24569 L 310.22745,526.24569 C 310.22745,525.9661 310.1134,525.71225 309.88531,525.48415 C 309.6572,525.25606 309.40336,525.14201 309.12376,525.142 L 308.02006,525.142 C 307.74782,525.14201 307.49397,525.25606 307.25852,525.48415 C 307.03042,525.71225 306.91637,525.9661 306.91637,526.24569 L 306.91637,529.55677 C 306.91637,529.82902 307.03042,530.08287 307.25852,530.31832 C 307.49397,530.54642 307.74782,530.66047 308.02006,530.66047 L 309.12376,530.66047 C 309.40336,530.66047 309.6572,530.54642 309.88531,530.31832 C 310.1134,530.08287 310.22745,529.82902 310.22745,529.55677 L 311.33114,529.55677 M 317.94899,531.76416 L 316.84529,531.76416 L 316.84529,528.45308 C 316.84529,528.17348 316.73124,527.91963 316.50315,527.69153 C 316.27505,527.46344 316.0212,527.34939 315.7416,527.34939 L 313.53421,527.34939 L 313.53421,531.76416 L 312.43052,531.76416 L 312.43052,524.03831 L 313.53421,524.03831 L 313.53421,526.24569 L 315.7416,526.24569 C 316.29344,526.2457 316.79746,526.47747 317.25366,526.94102 C 317.71721,527.39722 317.94898,527.90124 317.94899,528.45308 L 317.94899,531.76416 M 324.56683,531.76416 L 320.7039,531.76416 C 320.29186,531.76416 319.91292,531.59125 319.5671,531.24542 C 319.22128,530.8996 319.04836,530.52067 319.04836,530.10862 C 319.04836,529.69658 319.22128,529.31764 319.5671,528.97182 C 319.91292,528.626 320.29186,528.45308 320.7039,528.45308 L 323.46314,528.45308 C 323.46313,528.18084 323.34908,527.93435 323.12099,527.71361 C 322.89289,527.48551 322.63904,527.36411 322.35944,527.34939 C 322.35944,527.36411 321.62365,527.36411 320.15206,527.34939 L 320.15206,526.24569 L 322.35944,526.24569 C 322.91129,526.2457 323.41531,526.47747 323.8715,526.94102 C 324.33505,527.39722 324.56682,527.90124 324.56683,528.45308 L 324.56683,531.76416 M 323.46314,530.66047 L 323.46314,529.55677 L 320.7039,529.55677 C 320.55674,529.55678 320.42798,529.61564 320.31761,529.73336 C 320.20724,529.84374 320.15206,529.96882 320.15206,530.10862 C 320.15206,530.24842 320.20724,530.37719 320.31761,530.49491 C 320.42798,530.60528 320.55674,530.66047 320.7039,530.66047 L 323.46314,530.66047 M 330.08098,531.76416 L 326.7699,531.76416 L 326.7699,530.66047 L 327.8736,530.66047 L 327.8736,525.142 L 326.7699,525.142 L 326.7699,524.03831 L 328.97729,524.03831 L 328.97729,530.66047 L 330.08098,530.66047 L 330.08098,531.76416 M 336.69884,531.76416 L 333.38776,531.76416 L 333.38776,530.66047 L 334.49145,530.66047 L 334.49145,525.142 L 333.38776,525.142 L 333.38776,524.03831 L 335.59515,524.03831 L 335.59515,530.66047 L 336.69884,530.66047 L 336.69884,531.76416 M 344.42038,529.55677 L 340.0056,529.55677 C 340.0056,529.82166 340.12333,530.07183 340.35879,530.30729 C 340.59424,530.54274 340.84441,530.66047 341.1093,530.66047 L 343.31668,530.66047 L 343.31668,531.76416 L 341.1093,531.76416 C 340.55745,531.76416 340.04975,531.53606 339.5862,531.07987 C 339.13001,530.61632 338.90191,530.10862 338.90191,529.55677 L 338.90191,528.45308 C 338.90191,527.90124 339.13001,527.39722 339.5862,526.94102 C 340.04975,526.47747 340.55745,526.2457 341.1093,526.24569 L 342.21299,526.24569 C 342.84577,526.2457 343.38658,526.51059 343.83542,527.04035 C 344.22539,527.50391 344.42037,527.97482 344.42038,528.45308 L 344.42038,529.55677 M 343.31668,528.45308 C 343.31668,528.17348 343.20263,527.91963 342.97454,527.69153 C 342.74644,527.46344 342.49259,527.34939 342.21299,527.34939 L 341.1093,527.34939 C 340.82969,527.36411 340.57584,527.48551 340.34775,527.71361 C 340.11965,527.93435 340.0056,528.18084 340.0056,528.45308 L 343.31668,528.45308 M 351.03822,531.76416 L 349.93453,531.76416 L 349.93453,528.45308 C 349.93452,528.17348 349.82047,527.91963 349.59238,527.69153 C 349.36428,527.46344 349.11043,527.34939 348.83083,527.34939 L 346.62345,527.34939 L 346.62345,531.76416 L 345.51975,531.76416 L 345.51975,526.24569 L 348.83083,526.24569 C 349.38268,526.2457 349.8867,526.47747 350.34289,526.94102 C 350.80644,527.39722 351.03821,527.90124 351.03822,528.45308 L 351.03822,531.76416 M 357.65608,531.76416 C 357.65607,532.31601 357.4243,532.82003 356.96075,533.27622 C 356.50455,533.73977 356.00054,533.97154 355.44869,533.97155 L 353.24131,533.97155 L 353.24131,532.86785 L 355.44869,532.86785 C 355.72829,532.86785 355.98214,532.7538 356.21024,532.52571 C 356.43833,532.29761 356.55238,532.04376 356.55239,531.76416 L 354.345,531.76416 C 353.79315,531.76416 353.28545,531.53606 352.8219,531.07987 C 352.36571,530.61632 352.13761,530.10862 352.13761,529.55677 L 352.13761,528.45308 C 352.13761,527.90124 352.36571,527.39722 352.8219,526.94102 C 353.28545,526.47747 353.79315,526.2457 354.345,526.24569 L 357.65608,526.24569 L 357.65608,531.76416 M 356.55239,530.66047 L 356.55239,527.34939 L 354.345,527.34939 C 354.08011,527.34939 353.82994,527.46712 353.59449,527.70257 C 353.35903,527.93803 353.2413,528.1882 353.24131,528.45308 L 353.24131,529.55677 C 353.2413,529.82902 353.35535,530.07919 353.58345,530.30729 C 353.81155,530.52802 354.06539,530.64575 354.345,530.66047 L 356.55239,530.66047 M 364.27392,529.55677 L 359.85915,529.55677 C 359.85915,529.82166 359.97688,530.07183 360.21233,530.30729 C 360.44778,530.54274 360.69795,530.66047 360.96284,530.66047 L 363.17023,530.66047 L 363.17023,531.76416 L 360.96284,531.76416 C 360.41099,531.76416 359.9033,531.53606 359.43975,531.07987 C 358.98355,530.61632 358.75546,530.10862 358.75546,529.55677 L 358.75546,528.45308 C 358.75546,527.90124 358.98355,527.39722 359.43975,526.94102 C 359.9033,526.47747 360.41099,526.2457 360.96284,526.24569 L 362.06654,526.24569 C 362.69932,526.2457 363.24013,526.51059 363.68897,527.04035 C 364.07893,527.50391 364.27392,527.97482 364.27392,528.45308 L 364.27392,529.55677 M 363.17023,528.45308 C 363.17022,528.17348 363.05618,527.91963 362.82809,527.69153 C 362.59998,527.46344 362.34613,527.34939 362.06654,527.34939 L 360.96284,527.34939 C 360.68324,527.36411 360.42939,527.48551 360.2013,527.71361 C 359.9732,527.93435 359.85915,528.18084 359.85915,528.45308 L 363.17023,528.45308"
       id="text3233"
       inkscape:export-filename="/home/rjones/Desktop/path3206.png"
       inkscape:export-xdpi="119.68779"
       inkscape:export-ydpi="119.68779" />
  </g>
  <g
     inkscape:groupmode="layer"
     id="layer3"
     inkscape:label="gloss"
     style="display:inline">
    <path
       style="font-size:64px;font-style:normal;font-weight:normal;fill:url(#linearGradient5886);fill-opacity:1;stroke:none;stroke-width:1px;stroke-linecap:butt;stroke-linejoin:miter;stroke-opacity:1;display:inline;font-family:Transuranium"
       d="M 147.6875,478.9375 L 147.6875,499.125 C 152.71398,500.56696 158.13241,501.76322 163.71875,502.46875 C 171.03967,503.39334 180.54522,503.38367 190.59375,502.9375 L 190.59375,478.9375 L 147.6875,478.9375 z M 161.90625,491.90625 L 178.6875,491.90625 L 178.6875,493.96875 L 161.90625,493.96875 L 161.90625,491.90625 z "
       id="path5834"
       inkscape:export-filename="/home/rjones/Desktop/path3206.png"
       inkscape:export-xdpi="119.68779"
       inkscape:export-ydpi="119.68779" />
    <path
       style="font-size:64px;font-style:normal;font-weight:normal;fill:url(#linearGradient5884);fill-opacity:1;stroke:none;stroke-width:1px;stroke-linecap:butt;stroke-linejoin:miter;stroke-opacity:1;display:inline;font-family:Transuranium"
       d="M 192.5625,491.71875 L 192.5625,502.8125 C 202.73128,502.31322 213.24353,501.49627 222.65625,500.8125 L 222.65625,491.71875 L 208.90625,491.71875 L 208.90625,501.59375 L 206.84375,501.59375 L 206.84375,491.71875 L 192.5625,491.71875 z "
       id="path5836"
       inkscape:export-filename="/home/rjones/Desktop/path3206.png"
       inkscape:export-xdpi="119.68779"
       inkscape:export-ydpi="119.68779" />
    <path
       style="font-size:64px;font-style:normal;font-weight:normal;fill:url(#linearGradient5882);fill-opacity:1;stroke:none;stroke-width:1px;stroke-linecap:butt;stroke-linejoin:miter;stroke-opacity:1;display:inline;font-family:Transuranium"
       d="M 224.6875,478.9375 L 224.6875,500.65625 C 234.09313,499.99119 242.26878,499.51835 247.15625,499.9375 C 253.34888,500.46858 260.10787,503.39675 267.59375,506.59375 L 267.59375,478.9375 L 254.34375,478.9375 L 254.34375,496.28125 L 252.28125,496.28125 L 252.28125,478.9375 L 240.25,478.9375 L 240.25,496.28125 L 238.1875,496.28125 L 238.1875,478.9375 L 224.6875,478.9375 z "
       id="path5838"
       inkscape:export-filename="/home/rjones/Desktop/path3206.png"
       inkscape:export-xdpi="119.68779"
       inkscape:export-ydpi="119.68779" />
    <path
       style="font-size:64px;font-style:normal;font-weight:normal;fill:url(#linearGradient5880);fill-opacity:1;stroke:none;stroke-width:1px;stroke-linecap:butt;stroke-linejoin:miter;stroke-opacity:1;display:inline;font-family:Transuranium"
       d="M 269.5625,491.71875 L 269.5625,507.4375 C 272.58939,508.72064 275.70735,510.00241 279,511.1875 L 299.65625,511.1875 L 299.65625,501.71875 L 277.0625,501.71875 L 277.0625,499.65625 L 299.65625,499.65625 L 299.65625,491.71875 L 269.5625,491.71875 z M 285.3125,513.21875 C 289.82847,514.5077 294.59757,515.50591 299.65625,515.84375 L 299.65625,513.21875 L 285.3125,513.21875 z "
       id="path5840"
       inkscape:export-filename="/home/rjones/Desktop/path3206.png"
       inkscape:export-xdpi="119.68779"
       inkscape:export-ydpi="119.68779" />
    <path
       style="font-size:64px;font-style:normal;font-weight:normal;fill:url(#linearGradient5878);fill-opacity:1;stroke:none;stroke-width:1px;stroke-linecap:butt;stroke-linejoin:miter;stroke-opacity:1;display:inline;font-family:Transuranium"
       d="M 301.6875,491.71875 L 301.6875,515.90625 C 302.32486,515.92706 302.97854,515.96875 303.625,515.96875 C 309.26035,515.96876 320.58361,515.64696 331.78125,515.09375 L 331.78125,513.21875 L 309.1875,513.21875 L 309.1875,511.1875 L 331.78125,511.1875 L 331.78125,501.71875 L 309.1875,501.71875 L 309.1875,499.65625 L 331.78125,499.65625 L 331.78125,491.71875 L 301.6875,491.71875 z "
       id="path5842"
       inkscape:export-filename="/home/rjones/Desktop/path3206.png"
       inkscape:export-xdpi="119.68779"
       inkscape:export-ydpi="119.68779" />
    <path
       style="font-size:64px;font-style:normal;font-weight:normal;fill:url(#linearGradient5876);fill-opacity:1;stroke:none;stroke-width:1px;stroke-linecap:butt;stroke-linejoin:miter;stroke-opacity:1;display:inline;font-family:Transuranium"
       d="M 333.8125,491.71875 L 333.8125,515 C 340.99761,514.62367 347.97695,514.14145 353.1875,513.5625 C 356.94745,513.14473 360.5397,512.46431 363.90625,511.625 L 363.90625,508.25 L 356.65625,508.25 L 356.65625,506.1875 L 363.90625,506.1875 L 363.90625,491.71875 L 349.9375,491.71875 L 349.9375,499.78125 L 347.90625,499.78125 L 347.90625,491.71875 L 333.8125,491.71875 z "
       id="path5844"
       inkscape:export-filename="/home/rjones/Desktop/path3206.png"
       inkscape:export-xdpi="119.68779"
       inkscape:export-ydpi="119.68779" />
  </g>
  <g
     inkscape:groupmode="layer"
     id="layer2"
     inkscape:label="outline"
     style="display:inline">
    <path
       id="path3196"
       d="M 147.6875,478.9375 L 147.6875,521.8125 L 161.53125,521.8125 L 161.59375,506.6875 L 190.59375,506.6875 L 190.59375,478.9375 L 147.6875,478.9375 z M 161.90625,491.90625 L 178.6875,491.90625 L 178.6875,493.96875 L 161.90625,493.96875 L 161.90625,491.90625 z "
       style="font-size:64px;font-style:normal;font-weight:normal;fill:none;fill-opacity:1;stroke:#000000;stroke-width:1px;stroke-linecap:butt;stroke-linejoin:miter;stroke-opacity:1;font-family:Transuranium"
       inkscape:export-filename="/home/rjones/Desktop/path3206.png"
       inkscape:export-xdpi="119.68779"
       inkscape:export-ydpi="119.68779" />
    <path
       id="path3198"
       d="M 222.65329,521.80677 L 222.65329,491.72677 L 208.89329,491.72677 L 208.89329,501.58277 L 206.84529,501.58277 L 206.84529,491.72677 L 192.57329,491.72677 L 192.57329,513.87077 L 208.63729,513.87077 L 208.63729,515.91877 L 192.57329,515.91877 L 192.57329,521.80677 L 222.65329,521.80677"
       style="font-size:64px;font-style:normal;font-weight:normal;fill:none;fill-opacity:1;stroke:#000000;stroke-width:1px;stroke-linecap:butt;stroke-linejoin:miter;stroke-opacity:1;font-family:Transuranium"
       inkscape:export-filename="/home/rjones/Desktop/path3206.png"
       inkscape:export-xdpi="119.68779"
       inkscape:export-ydpi="119.68779" />
    <path
       id="path3200"
       d="M 267.57829,521.80677 L 267.57829,478.92677 L 254.33029,478.92677 L 254.33029,496.27077 L 252.28229,496.27077 L 252.28229,478.92677 L 240.25029,478.92677 L 240.25029,496.27077 L 238.20229,496.27077 L 238.20229,478.92677 L 224.69829,478.92677 L 224.69829,521.80677 L 245.05029,521.80677 L 245.05029,507.08677 L 247.09829,507.08677 L 247.09829,521.80677 L 267.57829,521.80677"
       style="font-size:64px;font-style:normal;font-weight:normal;fill:none;fill-opacity:1;stroke:#000000;stroke-width:1px;stroke-linecap:butt;stroke-linejoin:miter;stroke-opacity:1;font-family:Transuranium"
       inkscape:export-filename="/home/rjones/Desktop/path3206.png"
       inkscape:export-xdpi="119.68779"
       inkscape:export-ydpi="119.68779" />
    <path
       id="path3202"
       d="M 299.65329,521.80677 L 299.65329,513.23077 L 277.06129,513.23077 L 277.06129,511.18277 L 299.65329,511.18277 L 299.65329,501.71077 L 277.06129,501.71077 L 277.06129,499.66277 L 299.65329,499.66277 L 299.65329,491.72677 L 269.57329,491.72677 L 269.57329,521.80677 L 299.65329,521.80677"
       style="font-size:64px;font-style:normal;font-weight:normal;fill:none;fill-opacity:1;stroke:#000000;stroke-width:1px;stroke-linecap:butt;stroke-linejoin:miter;stroke-opacity:1;font-family:Transuranium"
       inkscape:export-filename="/home/rjones/Desktop/path3206.png"
       inkscape:export-xdpi="119.68779"
       inkscape:export-ydpi="119.68779" />
    <path
       id="path3204"
       d="M 331.77829,521.80677 L 331.77829,513.23077 L 309.18629,513.23077 L 309.18629,511.18277 L 331.77829,511.18277 L 331.77829,501.71077 L 309.18629,501.71077 L 309.18629,499.66277 L 331.77829,499.66277 L 331.77829,491.72677 L 301.69829,491.72677 L 301.69829,521.80677 L 331.77829,521.80677"
       style="font-size:64px;font-style:normal;font-weight:normal;fill:none;fill-opacity:1;stroke:#000000;stroke-width:1px;stroke-linecap:butt;stroke-linejoin:miter;stroke-opacity:1;font-family:Transuranium"
       inkscape:export-filename="/home/rjones/Desktop/path3206.png"
       inkscape:export-xdpi="119.68779"
       inkscape:export-ydpi="119.68779" />
    <path
       id="path3206"
       d="M 363.90329,521.80677 L 363.90329,508.23877 L 356.67129,508.23877 L 356.67129,506.19077 L 363.90329,506.19077 L 363.90329,491.72677 L 349.95129,491.72677 L 349.95129,499.79077 L 347.90329,499.79077 L 347.90329,491.72677 L 333.82329,491.72677 L 333.82329,521.80677 L 347.90329,521.80677 L 347.90329,514.38277 L 349.95129,514.38277 L 349.95129,521.80677 L 363.90329,521.80677"
       style="font-size:64px;font-style:normal;font-weight:normal;fill:none;fill-opacity:1;stroke:#000000;stroke-width:1px;stroke-linecap:butt;stroke-linejoin:miter;stroke-opacity:1;font-family:Transuranium"
       inkscape:export-xdpi="119.68779"
       inkscape:export-ydpi="119.68779" />
  </g>
</svg>
